<svg xmlns="http://www.w3.org/2000/svg" xmlns:xlink="http://www.w3.org/1999/xlink" width="500" zoomAndPan="magnify" viewBox="0 0 375 374.999991" height="500" preserveAspectRatio="xMidYMid meet" version="1.0"><defs><g/><clipPath id="2ef01dcf70"><path d="M 58.253906 78.632812 L 317.121094 78.632812 L 317.121094 337.5 L 58.253906 337.5 Z M 58.253906 78.632812 " clip-rule="nonzero"/></clipPath><clipPath id="7652f84150"><path d="M 187.6875 78.632812 C 116.203125 78.632812 58.253906 136.582031 58.253906 208.066406 C 58.253906 279.550781 116.203125 337.5 187.6875 337.5 C 259.171875 337.5 317.121094 279.550781 317.121094 208.066406 C 317.121094 136.582031 259.171875 78.632812 187.6875 78.632812 Z M 187.6875 78.632812 " clip-rule="nonzero"/></clipPath><clipPath id="a85da84745"><path d="M 0.253906 0.632812 L 259.121094 0.632812 L 259.121094 259.5 L 0.253906 259.5 Z M 0.253906 0.632812 " clip-rule="nonzero"/></clipPath><clipPath id="a00942ad7c"><path d="M 129.6875 0.632812 C 58.203125 0.632812 0.253906 58.582031 0.253906 130.066406 C 0.253906 201.550781 58.203125 259.5 129.6875 259.5 C 201.171875 259.5 259.121094 201.550781 259.121094 130.066406 C 259.121094 58.582031 201.171875 0.632812 129.6875 0.632812 Z M 129.6875 0.632812 " clip-rule="nonzero"/></clipPath><clipPath id="63275bbdb8"><rect x="0" width="260" y="0" height="260"/></clipPath><clipPath id="d572eadddf"><rect x="0" width="77" y="0" height="175"/></clipPath><clipPath id="8011c2950e"><path d="M 168.714844 242 L 206.214844 242 L 206.214844 273 L 168.714844 273 Z M 168.714844 242 " clip-rule="nonzero"/></clipPath><clipPath id="3c8ccae3d1"><path d="M 171.648438 245.019531 L 203.898438 245.019531 L 203.898438 271.601562 L 171.648438 271.601562 Z M 171.648438 245.019531 " clip-rule="nonzero"/></clipPath><clipPath id="d6265bbbbd"><path d="M 171.75 250.050781 C 171.824219 249.226562 171.824219 249 171.976562 248.851562 C 172.050781 248.625 172.125 248.476562 172.273438 248.324219 C 172.351562 248.101562 172.726562 247.875 172.726562 247.875 C 172.726562 247.875 173.101562 247.425781 173.476562 247.199219 C 174.074219 246.824219 175.351562 246.074219 176.324219 245.851562 C 177.226562 245.625 178.425781 245.773438 179.023438 245.773438 C 179.324219 245.773438 179.625 245.851562 179.699219 245.773438 C 179.773438 245.773438 179.773438 245.773438 179.773438 245.773438 C 179.773438 245.773438 180 245.699219 180.074219 245.625 C 180.148438 245.625 180.375 245.550781 180.375 245.550781 C 180.375 245.550781 180.601562 245.476562 180.675781 245.476562 C 180.75 245.476562 180.976562 245.398438 180.976562 245.398438 C 180.976562 245.398438 181.199219 245.398438 181.273438 245.476562 C 181.425781 245.476562 181.648438 245.476562 181.648438 245.476562 C 181.648438 245.476562 181.800781 245.550781 181.949219 245.550781 C 182.023438 245.625 182.25 245.625 182.25 245.699219 C 182.25 245.699219 182.398438 245.773438 182.476562 245.851562 C 182.550781 245.925781 182.773438 246 182.773438 246 C 182.773438 246 182.925781 246.148438 183 246.226562 C 183.074219 246.300781 183.226562 246.449219 183.226562 246.449219 C 183.226562 246.449219 183.226562 246.449219 183.226562 246.523438 C 183.226562 246.523438 183.300781 246.601562 183.375 246.675781 C 183.449219 246.75 183.601562 246.898438 183.601562 246.976562 C 183.601562 246.976562 183.675781 247.125 183.75 247.199219 C 183.824219 247.273438 183.898438 247.5 183.898438 247.5 C 183.898438 247.5 183.898438 247.5 183.898438 247.574219 C 183.976562 247.726562 184.5 248.550781 184.648438 248.550781 C 184.726562 248.625 184.726562 248.550781 184.800781 248.550781 C 184.875 248.550781 185.101562 248.476562 185.101562 248.476562 C 185.101562 248.476562 185.324219 248.476562 185.398438 248.476562 C 185.476562 248.476562 185.699219 248.476562 185.699219 248.476562 C 185.699219 248.476562 185.925781 248.550781 186 248.550781 C 186.148438 248.625 186.300781 248.625 186.300781 248.625 C 186.300781 248.625 186.523438 248.773438 186.601562 248.773438 C 186.675781 248.851562 186.898438 248.925781 186.898438 248.925781 C 186.898438 248.925781 187.050781 249.074219 187.125 249.148438 C 187.199219 249.226562 187.351562 249.375 187.351562 249.375 C 187.351562 249.375 188.175781 250.5 188.550781 250.5 C 189 250.5 189.523438 249.226562 189.75 249.074219 C 189.824219 249 189.898438 249 189.976562 248.925781 C 190.050781 248.925781 190.050781 248.851562 190.050781 248.773438 C 190.125 248.773438 190.199219 248.773438 190.273438 248.773438 C 190.574219 248.625 191.324219 248.324219 191.699219 247.875 C 192.226562 247.351562 192.148438 245.925781 192.824219 245.476562 C 193.574219 244.949219 195.074219 245.023438 196.050781 245.25 C 196.949219 245.398438 197.550781 246.074219 198.449219 246.375 C 199.351562 246.75 200.625 246.824219 201.449219 247.351562 C 202.351562 247.875 203.25 248.699219 203.550781 249.675781 C 203.925781 250.648438 203.851562 252.375 203.398438 253.273438 C 202.949219 254.023438 202.050781 254.625 201.226562 254.851562 C 200.398438 255.074219 199.273438 254.550781 198.375 254.476562 C 197.476562 254.476562 196.050781 254.101562 195.675781 254.550781 C 195.375 255 196.199219 256.949219 196.273438 257.101562 C 196.273438 257.101562 196.273438 257.101562 196.273438 257.175781 C 196.351562 257.175781 196.425781 257.398438 196.425781 257.398438 C 196.425781 257.398438 196.5 257.625 196.574219 257.699219 C 196.574219 257.773438 196.648438 258 196.648438 258 C 196.648438 258 196.648438 259.351562 196.726562 260.101562 C 196.800781 261 197.101562 262.050781 197.25 263.023438 C 197.398438 264.148438 197.476562 265.351562 197.476562 266.476562 C 197.550781 267.449219 198 268.5 197.550781 269.324219 C 197.101562 270.148438 195.75 270.898438 194.625 271.273438 C 193.574219 271.648438 192.148438 271.5 191.023438 271.425781 C 190.125 271.425781 188.398438 270.976562 188.398438 271.050781 C 188.398438 271.050781 188.175781 271.050781 188.101562 271.125 C 187.949219 271.125 187.800781 271.199219 187.800781 271.199219 C 187.800781 271.199219 187.574219 271.199219 187.425781 271.199219 C 187.351562 271.199219 187.125 271.199219 187.125 271.199219 C 187.125 271.199219 186.898438 271.125 186.824219 271.125 C 186.75 271.125 186.523438 271.050781 186.523438 271.050781 C 186.523438 271.050781 186.300781 270.976562 186.226562 270.898438 C 186.148438 270.898438 186.148438 270.824219 186.074219 270.824219 C 185.925781 270.824219 185.773438 271.125 185.550781 271.199219 C 184.949219 271.351562 183.675781 271.125 182.773438 271.125 C 181.875 271.050781 180.898438 271.351562 180.074219 271.125 C 179.25 270.824219 178.125 270.449219 177.675781 269.625 C 177.148438 268.648438 177.898438 266.550781 177.976562 265.273438 C 177.976562 264.300781 177.976562 263.550781 177.976562 262.648438 C 177.976562 261.75 178.125 260.773438 178.125 259.875 C 178.125 258.898438 177.976562 257.101562 177.976562 257.101562 C 177.976562 257.101562 177.976562 256.875 177.976562 256.800781 C 177.976562 256.726562 178.050781 256.5 178.050781 256.5 C 178.050781 256.5 178.050781 256.273438 178.125 256.199219 C 178.125 256.050781 178.199219 255.898438 178.199219 255.898438 C 178.199219 255.898438 178.351562 255.75 178.351562 255.675781 C 178.351562 255.601562 178.351562 255.449219 178.351562 255.449219 C 178.351562 255.449219 178.351562 255.226562 178.351562 255.148438 C 178.273438 255 178.273438 254.851562 178.273438 254.851562 C 178.273438 254.851562 178.351562 254.625 178.351562 254.550781 C 178.125 254.324219 176.550781 254.476562 176.25 254.550781 C 176.101562 254.550781 176.101562 254.550781 176.023438 254.550781 C 175.949219 254.625 175.726562 254.625 175.726562 254.625 C 175.726562 254.625 175.5 254.625 175.425781 254.625 C 175.273438 254.625 175.050781 254.625 175.050781 254.625 C 175.050781 254.625 174.898438 254.550781 174.75 254.550781 C 174.675781 254.476562 174.449219 254.398438 174.449219 254.398438 C 174.449219 254.398438 174.300781 254.324219 174.226562 254.25 C 174.074219 254.175781 173.925781 254.101562 173.925781 254.101562 C 173.925781 254.101562 173.773438 253.949219 173.699219 253.875 C 173.625 253.800781 173.476562 253.648438 173.476562 253.648438 C 173.476562 253.648438 173.324219 253.5 173.324219 253.425781 C 173.25 253.273438 173.175781 253.125 173.101562 253.125 C 173.101562 253.125 173.101562 252.898438 173.023438 252.824219 C 173.023438 252.75 172.949219 252.523438 172.949219 252.523438 C 172.949219 252.523438 172.949219 252.300781 172.949219 252.226562 C 172.949219 252.148438 172.949219 252.074219 172.875 252.074219 C 172.875 251.925781 172.648438 251.851562 172.574219 251.773438 C 172.425781 251.625 172.273438 251.476562 172.125 251.25 C 172.050781 251.101562 171.898438 250.875 171.898438 250.726562 C 171.824219 250.5 171.75 250.050781 171.75 250.050781 " clip-rule="nonzero"/></clipPath><clipPath id="6ef5e99063"><path d="M 0.648438 0.0195312 L 32.898438 0.0195312 L 32.898438 26.601562 L 0.648438 26.601562 Z M 0.648438 0.0195312 " clip-rule="nonzero"/></clipPath><clipPath id="1bc19f51d0"><path d="M 0.75 5.050781 C 0.824219 4.226562 0.824219 4 0.976562 3.851562 C 1.050781 3.625 1.125 3.476562 1.273438 3.324219 C 1.351562 3.101562 1.726562 2.875 1.726562 2.875 C 1.726562 2.875 2.101562 2.425781 2.476562 2.199219 C 3.074219 1.824219 4.351562 1.074219 5.324219 0.851562 C 6.226562 0.625 7.425781 0.773438 8.023438 0.773438 C 8.324219 0.773438 8.625 0.851562 8.699219 0.773438 C 8.773438 0.773438 8.773438 0.773438 8.773438 0.773438 C 8.773438 0.773438 9 0.699219 9.074219 0.625 C 9.148438 0.625 9.375 0.550781 9.375 0.550781 C 9.375 0.550781 9.601562 0.476562 9.675781 0.476562 C 9.75 0.476562 9.976562 0.398438 9.976562 0.398438 C 9.976562 0.398438 10.199219 0.398438 10.273438 0.476562 C 10.425781 0.476562 10.648438 0.476562 10.648438 0.476562 C 10.648438 0.476562 10.800781 0.550781 10.949219 0.550781 C 11.023438 0.625 11.25 0.625 11.25 0.699219 C 11.25 0.699219 11.398438 0.773438 11.476562 0.851562 C 11.550781 0.925781 11.773438 1 11.773438 1 C 11.773438 1 11.925781 1.148438 12 1.226562 C 12.074219 1.300781 12.226562 1.449219 12.226562 1.449219 C 12.226562 1.449219 12.226562 1.449219 12.226562 1.523438 C 12.226562 1.523438 12.300781 1.601562 12.375 1.675781 C 12.449219 1.75 12.601562 1.898438 12.601562 1.976562 C 12.601562 1.976562 12.675781 2.125 12.75 2.199219 C 12.824219 2.273438 12.898438 2.5 12.898438 2.5 C 12.898438 2.5 12.898438 2.5 12.898438 2.574219 C 12.976562 2.726562 13.5 3.550781 13.648438 3.550781 C 13.726562 3.625 13.726562 3.550781 13.800781 3.550781 C 13.875 3.550781 14.101562 3.476562 14.101562 3.476562 C 14.101562 3.476562 14.324219 3.476562 14.398438 3.476562 C 14.476562 3.476562 14.699219 3.476562 14.699219 3.476562 C 14.699219 3.476562 14.925781 3.550781 15 3.550781 C 15.148438 3.625 15.300781 3.625 15.300781 3.625 C 15.300781 3.625 15.523438 3.773438 15.601562 3.773438 C 15.675781 3.851562 15.898438 3.925781 15.898438 3.925781 C 15.898438 3.925781 16.050781 4.074219 16.125 4.148438 C 16.199219 4.226562 16.351562 4.375 16.351562 4.375 C 16.351562 4.375 17.175781 5.5 17.550781 5.5 C 18 5.5 18.523438 4.226562 18.75 4.074219 C 18.824219 4 18.898438 4 18.976562 3.925781 C 19.050781 3.925781 19.050781 3.851562 19.050781 3.773438 C 19.125 3.773438 19.199219 3.773438 19.273438 3.773438 C 19.574219 3.625 20.324219 3.324219 20.699219 2.875 C 21.226562 2.351562 21.148438 0.925781 21.824219 0.476562 C 22.574219 -0.0507812 24.074219 0.0234375 25.050781 0.25 C 25.949219 0.398438 26.550781 1.074219 27.449219 1.375 C 28.351562 1.75 29.625 1.824219 30.449219 2.351562 C 31.351562 2.875 32.25 3.699219 32.550781 4.675781 C 32.925781 5.648438 32.851562 7.375 32.398438 8.273438 C 31.949219 9.023438 31.050781 9.625 30.226562 9.851562 C 29.398438 10.074219 28.273438 9.550781 27.375 9.476562 C 26.476562 9.476562 25.050781 9.101562 24.675781 9.550781 C 24.375 10 25.199219 11.949219 25.273438 12.101562 C 25.273438 12.101562 25.273438 12.101562 25.273438 12.175781 C 25.351562 12.175781 25.425781 12.398438 25.425781 12.398438 C 25.425781 12.398438 25.5 12.625 25.574219 12.699219 C 25.574219 12.773438 25.648438 13 25.648438 13 C 25.648438 13 25.648438 14.351562 25.726562 15.101562 C 25.800781 16 26.101562 17.050781 26.25 18.023438 C 26.398438 19.148438 26.476562 20.351562 26.476562 21.476562 C 26.550781 22.449219 27 23.5 26.550781 24.324219 C 26.101562 25.148438 24.75 25.898438 23.625 26.273438 C 22.574219 26.648438 21.148438 26.5 20.023438 26.425781 C 19.125 26.425781 17.398438 25.976562 17.398438 26.050781 C 17.398438 26.050781 17.175781 26.050781 17.101562 26.125 C 16.949219 26.125 16.800781 26.199219 16.800781 26.199219 C 16.800781 26.199219 16.574219 26.199219 16.425781 26.199219 C 16.351562 26.199219 16.125 26.199219 16.125 26.199219 C 16.125 26.199219 15.898438 26.125 15.824219 26.125 C 15.75 26.125 15.523438 26.050781 15.523438 26.050781 C 15.523438 26.050781 15.300781 25.976562 15.226562 25.898438 C 15.148438 25.898438 15.148438 25.824219 15.074219 25.824219 C 14.925781 25.824219 14.773438 26.125 14.550781 26.199219 C 13.949219 26.351562 12.675781 26.125 11.773438 26.125 C 10.875 26.050781 9.898438 26.351562 9.074219 26.125 C 8.25 25.824219 7.125 25.449219 6.675781 24.625 C 6.148438 23.648438 6.898438 21.550781 6.976562 20.273438 C 6.976562 19.300781 6.976562 18.550781 6.976562 17.648438 C 6.976562 16.75 7.125 15.773438 7.125 14.875 C 7.125 13.898438 6.976562 12.101562 6.976562 12.101562 C 6.976562 12.101562 6.976562 11.875 6.976562 11.800781 C 6.976562 11.726562 7.050781 11.5 7.050781 11.5 C 7.050781 11.5 7.050781 11.273438 7.125 11.199219 C 7.125 11.050781 7.199219 10.898438 7.199219 10.898438 C 7.199219 10.898438 7.351562 10.75 7.351562 10.675781 C 7.351562 10.601562 7.351562 10.449219 7.351562 10.449219 C 7.351562 10.449219 7.351562 10.226562 7.351562 10.148438 C 7.273438 10 7.273438 9.851562 7.273438 9.851562 C 7.273438 9.851562 7.351562 9.625 7.351562 9.550781 C 7.125 9.324219 5.550781 9.476562 5.25 9.550781 C 5.101562 9.550781 5.101562 9.550781 5.023438 9.550781 C 4.949219 9.625 4.726562 9.625 4.726562 9.625 C 4.726562 9.625 4.5 9.625 4.425781 9.625 C 4.273438 9.625 4.050781 9.625 4.050781 9.625 C 4.050781 9.625 3.898438 9.550781 3.75 9.550781 C 3.675781 9.476562 3.449219 9.398438 3.449219 9.398438 C 3.449219 9.398438 3.300781 9.324219 3.226562 9.25 C 3.074219 9.175781 2.925781 9.101562 2.925781 9.101562 C 2.925781 9.101562 2.773438 8.949219 2.699219 8.875 C 2.625 8.800781 2.476562 8.648438 2.476562 8.648438 C 2.476562 8.648438 2.324219 8.5 2.324219 8.425781 C 2.25 8.273438 2.175781 8.125 2.101562 8.125 C 2.101562 8.125 2.101562 7.898438 2.023438 7.824219 C 2.023438 7.75 1.949219 7.523438 1.949219 7.523438 C 1.949219 7.523438 1.949219 7.300781 1.949219 7.226562 C 1.949219 7.148438 1.949219 7.074219 1.875 7.074219 C 1.875 6.925781 1.648438 6.851562 1.574219 6.773438 C 1.425781 6.625 1.273438 6.476562 1.125 6.25 C 1.050781 6.101562 0.898438 5.875 0.898438 5.726562 C 0.824219 5.5 0.75 5.050781 0.75 5.050781 " clip-rule="nonzero"/></clipPath><clipPath id="2f5e54b812"><rect x="0" width="33" y="0" height="27"/></clipPath><clipPath id="314dce696b"><path d="M 191.375 250.46875 L 197.636719 250.46875 L 197.636719 265.09375 L 191.375 265.09375 Z M 191.375 250.46875 " clip-rule="nonzero"/></clipPath><clipPath id="8a94c13891"><path d="M 197.023438 252.898438 C 196.875 264.523438 195.449219 265.199219 194.625 265.050781 C 193.800781 264.976562 192.601562 263.550781 192.375 262.800781 C 192.226562 262.273438 192.375 261.675781 192.75 261.148438 C 193.125 260.625 194.101562 259.949219 194.773438 259.875 C 195.375 259.800781 195.976562 259.949219 196.425781 260.25 C 196.949219 260.699219 197.699219 261.675781 197.625 262.425781 C 197.550781 263.25 196.574219 264.75 195.75 264.976562 C 194.925781 265.199219 193.5 264.824219 192.75 263.851562 C 191.398438 262.050781 190.949219 254.101562 192 252.074219 C 192.523438 251.023438 193.726562 250.574219 194.550781 250.5 C 195.148438 250.425781 195.824219 250.800781 196.199219 251.25 C 196.648438 251.625 197.023438 252.898438 197.023438 252.898438 " clip-rule="nonzero"/></clipPath><clipPath id="a5baca3f03"><path d="M 0.375 0.46875 L 6.636719 0.46875 L 6.636719 15.09375 L 0.375 15.09375 Z M 0.375 0.46875 " clip-rule="nonzero"/></clipPath><clipPath id="ede58cf997"><path d="M 6.023438 2.898438 C 5.875 14.523438 4.449219 15.199219 3.625 15.050781 C 2.800781 14.976562 1.601562 13.550781 1.375 12.800781 C 1.226562 12.273438 1.375 11.675781 1.75 11.148438 C 2.125 10.625 3.101562 9.949219 3.773438 9.875 C 4.375 9.800781 4.976562 9.949219 5.425781 10.25 C 5.949219 10.699219 6.699219 11.675781 6.625 12.425781 C 6.550781 13.25 5.574219 14.75 4.75 14.976562 C 3.925781 15.199219 2.5 14.824219 1.75 13.851562 C 0.398438 12.050781 -0.0507812 4.101562 1 2.074219 C 1.523438 1.023438 2.726562 0.574219 3.550781 0.5 C 4.148438 0.425781 4.824219 0.800781 5.199219 1.25 C 5.648438 1.625 6.023438 2.898438 6.023438 2.898438 " clip-rule="nonzero"/></clipPath><clipPath id="acb3a5f916"><rect x="0" width="7" y="0" height="16"/></clipPath></defs><g clip-path="url(#2ef01dcf70)"><g clip-path="url(#7652f84150)"><g transform="matrix(1, 0, 0, 1, 58, 78)"><g clip-path="url(#63275bbdb8)"><g clip-path="url(#a85da84745)"><g clip-path="url(#a00942ad7c)"><path fill="#007aff" d="M 0.253906 0.632812 L 259.121094 0.632812 L 259.121094 259.5 L 0.253906 259.5 Z M 0.253906 0.632812 " fill-opacity="1" fill-rule="nonzero"/></g></g></g></g></g></g><g transform="matrix(1, 0, 0, 1, 149, 99)"><g clip-path="url(#d572eadddf)"><g fill="#ffffff" fill-opacity="1"><g transform="translate(2.330495, 136.502402)"><g><path d="M 36.21875 -18.296875 L 55.75 -78.859375 L 69.53125 -78.859375 L 41.25 0 L 30.96875 0 L 2.40625 -78.859375 L 16.171875 -78.859375 Z M 36.21875 -18.296875 "/></g></g></g></g></g><g clip-path="url(#8011c2950e)"><path fill="#ffffff" d="M 199.648438 272.828125 L 175.347656 272.828125 L 176.4375 255.804688 L 171.652344 256.636719 L 168.714844 247.816406 L 181.363281 242.753906 L 187.5 247.667969 L 193.632812 242.753906 L 206.285156 247.816406 L 203.34375 256.636719 L 198.558594 255.804688 Z M 178.394531 269.972656 L 196.605469 269.972656 L 195.480469 252.371094 L 201.410156 253.402344 L 202.722656 249.46875 L 194.117188 246.027344 L 187.5 251.328125 L 180.878906 246.027344 L 172.273438 249.46875 L 173.585938 253.402344 L 179.519531 252.371094 Z M 178.394531 269.972656 " fill-opacity="1" fill-rule="nonzero"/></g><g clip-path="url(#3c8ccae3d1)"><g clip-path="url(#d6265bbbbd)"><g transform="matrix(1, 0, 0, 1, 171, 245)"><g clip-path="url(#2f5e54b812)"><g clip-path="url(#6ef5e99063)"><g clip-path="url(#1bc19f51d0)"><rect x="-253.5" width="540" fill="#ffffff" height="539.999987" y="-327.499998" fill-opacity="1"/></g></g></g></g></g></g><g clip-path="url(#314dce696b)"><g clip-path="url(#8a94c13891)"><g transform="matrix(1, 0, 0, 1, 191, 250)"><g clip-path="url(#acb3a5f916)"><g clip-path="url(#a5baca3f03)"><g clip-path="url(#ede58cf997)"><rect x="-273.5" width="540" fill="#ffffff" height="539.999987" y="-332.499998" fill-opacity="1"/></g></g></g></g></g></g></svg>