<svg xmlns="http://www.w3.org/2000/svg" xmlns:xlink="http://www.w3.org/1999/xlink" width="469" zoomAndPan="magnify" viewBox="0 0 351.75 203.999996" height="272" preserveAspectRatio="xMidYMid meet" version="1.0"><defs><g/><clipPath id="ca46863d80"><path d="M 0.660156 13 L 301.648438 13 L 301.648438 119 L 0.660156 119 Z M 0.660156 13 " clip-rule="nonzero"/></clipPath><clipPath id="b1671b246a"><rect x="0" width="302" y="0" height="106"/></clipPath><clipPath id="6f941c576c"><path d="M 121 0.886719 L 180 0.886719 L 180 135 L 121 135 Z M 121 0.886719 " clip-rule="nonzero"/></clipPath><clipPath id="e22faea23b"><rect x="0" width="59" y="0" height="135"/></clipPath><clipPath id="ac5ffdac42"><path d="M 136.152344 111 L 165.1875 111 L 165.1875 135 L 136.152344 135 Z M 136.152344 111 " clip-rule="nonzero"/></clipPath><clipPath id="1c2dfd2126"><path d="M 137.671875 112.59375 L 163.683594 112.59375 L 163.683594 134 L 137.671875 134 Z M 137.671875 112.59375 " clip-rule="nonzero"/></clipPath><clipPath id="4f2cdd91df"><path d="M 137.753906 116.648438 C 137.816406 115.984375 137.816406 115.800781 137.933594 115.679688 C 137.996094 115.5 138.054688 115.378906 138.175781 115.257812 C 138.238281 115.074219 138.539062 114.894531 138.539062 114.894531 C 138.539062 114.894531 138.84375 114.53125 139.144531 114.347656 C 139.628906 114.046875 140.65625 113.441406 141.445312 113.261719 C 142.171875 113.078125 143.136719 113.199219 143.621094 113.199219 C 143.863281 113.199219 144.105469 113.261719 144.167969 113.199219 C 144.226562 113.199219 144.226562 113.199219 144.226562 113.199219 C 144.226562 113.199219 144.410156 113.140625 144.46875 113.078125 C 144.53125 113.078125 144.710938 113.019531 144.710938 113.019531 C 144.710938 113.019531 144.890625 112.957031 144.953125 112.957031 C 145.011719 112.957031 145.195312 112.898438 145.195312 112.898438 C 145.195312 112.898438 145.375 112.898438 145.4375 112.957031 C 145.558594 112.957031 145.738281 112.957031 145.738281 112.957031 C 145.738281 112.957031 145.859375 113.019531 145.980469 113.019531 C 146.042969 113.078125 146.222656 113.078125 146.222656 113.140625 C 146.222656 113.140625 146.34375 113.199219 146.40625 113.261719 C 146.464844 113.320312 146.648438 113.382812 146.648438 113.382812 C 146.648438 113.382812 146.769531 113.503906 146.828125 113.5625 C 146.886719 113.625 147.007812 113.746094 147.007812 113.746094 C 147.007812 113.746094 147.007812 113.746094 147.007812 113.804688 C 147.007812 113.804688 147.070312 113.863281 147.128906 113.925781 C 147.191406 113.984375 147.3125 114.105469 147.3125 114.167969 C 147.3125 114.167969 147.371094 114.289062 147.433594 114.347656 C 147.492188 114.410156 147.554688 114.589844 147.554688 114.589844 C 147.554688 114.589844 147.554688 114.589844 147.554688 114.652344 C 147.613281 114.773438 148.039062 115.4375 148.160156 115.4375 C 148.21875 115.5 148.21875 115.4375 148.28125 115.4375 C 148.339844 115.4375 148.523438 115.378906 148.523438 115.378906 C 148.523438 115.378906 148.703125 115.378906 148.765625 115.378906 C 148.824219 115.378906 149.007812 115.378906 149.007812 115.378906 C 149.007812 115.378906 149.1875 115.4375 149.246094 115.4375 C 149.367188 115.5 149.488281 115.5 149.488281 115.5 C 149.488281 115.5 149.671875 115.621094 149.730469 115.621094 C 149.792969 115.679688 149.972656 115.742188 149.972656 115.742188 C 149.972656 115.742188 150.09375 115.863281 150.15625 115.921875 C 150.214844 115.984375 150.335938 116.101562 150.335938 116.101562 C 150.335938 116.101562 151.003906 117.011719 151.304688 117.011719 C 151.667969 117.011719 152.089844 115.984375 152.273438 115.863281 C 152.332031 115.800781 152.394531 115.800781 152.453125 115.742188 C 152.515625 115.742188 152.515625 115.679688 152.515625 115.621094 C 152.574219 115.621094 152.636719 115.621094 152.695312 115.621094 C 152.9375 115.5 153.542969 115.257812 153.84375 114.894531 C 154.269531 114.46875 154.207031 113.320312 154.753906 112.957031 C 155.359375 112.535156 156.566406 112.59375 157.355469 112.777344 C 158.078125 112.898438 158.5625 113.441406 159.289062 113.683594 C 160.015625 113.984375 161.042969 114.046875 161.710938 114.46875 C 162.4375 114.894531 163.160156 115.558594 163.402344 116.34375 C 163.707031 117.132812 163.644531 118.523438 163.28125 119.25 C 162.917969 119.855469 162.195312 120.339844 161.527344 120.519531 C 160.863281 120.699219 159.957031 120.277344 159.230469 120.21875 C 158.503906 120.21875 157.355469 119.914062 157.050781 120.277344 C 156.808594 120.640625 157.476562 122.214844 157.535156 122.335938 C 157.535156 122.335938 157.535156 122.335938 157.535156 122.394531 C 157.597656 122.394531 157.65625 122.578125 157.65625 122.578125 C 157.65625 122.578125 157.71875 122.757812 157.777344 122.816406 C 157.777344 122.878906 157.839844 123.058594 157.839844 123.058594 C 157.839844 123.058594 157.839844 124.148438 157.898438 124.753906 C 157.960938 125.480469 158.199219 126.328125 158.320312 127.113281 C 158.441406 128.019531 158.503906 128.988281 158.503906 129.894531 C 158.5625 130.683594 158.925781 131.53125 158.5625 132.195312 C 158.199219 132.859375 157.113281 133.464844 156.203125 133.769531 C 155.359375 134.070312 154.207031 133.949219 153.300781 133.890625 C 152.574219 133.890625 151.183594 133.527344 151.183594 133.585938 C 151.183594 133.585938 151.003906 133.585938 150.941406 133.648438 C 150.820312 133.648438 150.699219 133.707031 150.699219 133.707031 C 150.699219 133.707031 150.519531 133.707031 150.398438 133.707031 C 150.335938 133.707031 150.15625 133.707031 150.15625 133.707031 C 150.15625 133.707031 149.972656 133.648438 149.914062 133.648438 C 149.851562 133.648438 149.671875 133.585938 149.671875 133.585938 C 149.671875 133.585938 149.488281 133.527344 149.429688 133.464844 C 149.367188 133.464844 149.367188 133.40625 149.308594 133.40625 C 149.1875 133.40625 149.066406 133.648438 148.886719 133.707031 C 148.402344 133.828125 147.371094 133.648438 146.648438 133.648438 C 145.921875 133.585938 145.132812 133.828125 144.46875 133.648438 C 143.804688 133.40625 142.894531 133.101562 142.53125 132.4375 C 142.109375 131.652344 142.714844 129.957031 142.773438 128.929688 C 142.773438 128.140625 142.773438 127.535156 142.773438 126.8125 C 142.773438 126.085938 142.894531 125.296875 142.894531 124.574219 C 142.894531 123.785156 142.773438 122.335938 142.773438 122.335938 C 142.773438 122.335938 142.773438 122.152344 142.773438 122.09375 C 142.773438 122.03125 142.835938 121.851562 142.835938 121.851562 C 142.835938 121.851562 142.835938 121.667969 142.894531 121.609375 C 142.894531 121.488281 142.957031 121.367188 142.957031 121.367188 C 142.957031 121.367188 143.078125 121.246094 143.078125 121.183594 C 143.078125 121.125 143.078125 121.003906 143.078125 121.003906 C 143.078125 121.003906 143.078125 120.820312 143.078125 120.761719 C 143.015625 120.640625 143.015625 120.519531 143.015625 120.519531 C 143.015625 120.519531 143.078125 120.339844 143.078125 120.277344 C 142.894531 120.097656 141.625 120.21875 141.382812 120.277344 C 141.261719 120.277344 141.261719 120.277344 141.203125 120.277344 C 141.140625 120.339844 140.960938 120.339844 140.960938 120.339844 C 140.960938 120.339844 140.777344 120.339844 140.71875 120.339844 C 140.597656 120.339844 140.414062 120.339844 140.414062 120.339844 C 140.414062 120.339844 140.292969 120.277344 140.171875 120.277344 C 140.113281 120.21875 139.933594 120.15625 139.933594 120.15625 C 139.933594 120.15625 139.8125 120.097656 139.75 120.035156 C 139.628906 119.976562 139.507812 119.914062 139.507812 119.914062 C 139.507812 119.914062 139.386719 119.792969 139.328125 119.734375 C 139.265625 119.671875 139.144531 119.550781 139.144531 119.550781 C 139.144531 119.550781 139.023438 119.429688 139.023438 119.371094 C 138.964844 119.25 138.902344 119.128906 138.84375 119.128906 C 138.84375 119.128906 138.84375 118.945312 138.78125 118.886719 C 138.78125 118.824219 138.722656 118.644531 138.722656 118.644531 C 138.722656 118.644531 138.722656 118.460938 138.722656 118.402344 C 138.722656 118.339844 138.722656 118.28125 138.660156 118.28125 C 138.660156 118.160156 138.480469 118.101562 138.417969 118.039062 C 138.296875 117.917969 138.175781 117.796875 138.054688 117.617188 C 137.996094 117.496094 137.875 117.3125 137.875 117.191406 C 137.816406 117.011719 137.753906 116.648438 137.753906 116.648438 " clip-rule="nonzero"/></clipPath><clipPath id="e16fff5613"><path d="M 0.671875 0.59375 L 26.683594 0.59375 L 26.683594 22 L 0.671875 22 Z M 0.671875 0.59375 " clip-rule="nonzero"/></clipPath><clipPath id="2fea63ceca"><path d="M 0.753906 4.648438 C 0.816406 3.984375 0.816406 3.800781 0.933594 3.679688 C 0.996094 3.5 1.054688 3.378906 1.175781 3.257812 C 1.238281 3.074219 1.539062 2.894531 1.539062 2.894531 C 1.539062 2.894531 1.84375 2.53125 2.144531 2.347656 C 2.628906 2.046875 3.65625 1.441406 4.445312 1.261719 C 5.171875 1.078125 6.136719 1.199219 6.621094 1.199219 C 6.863281 1.199219 7.105469 1.261719 7.167969 1.199219 C 7.226562 1.199219 7.226562 1.199219 7.226562 1.199219 C 7.226562 1.199219 7.410156 1.140625 7.46875 1.078125 C 7.53125 1.078125 7.710938 1.019531 7.710938 1.019531 C 7.710938 1.019531 7.890625 0.957031 7.953125 0.957031 C 8.011719 0.957031 8.195312 0.898438 8.195312 0.898438 C 8.195312 0.898438 8.375 0.898438 8.4375 0.957031 C 8.558594 0.957031 8.738281 0.957031 8.738281 0.957031 C 8.738281 0.957031 8.859375 1.019531 8.980469 1.019531 C 9.042969 1.078125 9.222656 1.078125 9.222656 1.140625 C 9.222656 1.140625 9.34375 1.199219 9.40625 1.261719 C 9.464844 1.320312 9.648438 1.382812 9.648438 1.382812 C 9.648438 1.382812 9.769531 1.503906 9.828125 1.5625 C 9.886719 1.625 10.007812 1.746094 10.007812 1.746094 C 10.007812 1.746094 10.007812 1.746094 10.007812 1.804688 C 10.007812 1.804688 10.070312 1.863281 10.128906 1.925781 C 10.191406 1.984375 10.3125 2.105469 10.3125 2.167969 C 10.3125 2.167969 10.371094 2.289062 10.433594 2.347656 C 10.492188 2.410156 10.554688 2.589844 10.554688 2.589844 C 10.554688 2.589844 10.554688 2.589844 10.554688 2.652344 C 10.613281 2.773438 11.039062 3.4375 11.160156 3.4375 C 11.21875 3.5 11.21875 3.4375 11.28125 3.4375 C 11.339844 3.4375 11.523438 3.378906 11.523438 3.378906 C 11.523438 3.378906 11.703125 3.378906 11.765625 3.378906 C 11.824219 3.378906 12.007812 3.378906 12.007812 3.378906 C 12.007812 3.378906 12.1875 3.4375 12.246094 3.4375 C 12.367188 3.5 12.488281 3.5 12.488281 3.5 C 12.488281 3.5 12.671875 3.621094 12.730469 3.621094 C 12.792969 3.679688 12.972656 3.742188 12.972656 3.742188 C 12.972656 3.742188 13.09375 3.863281 13.15625 3.921875 C 13.214844 3.984375 13.335938 4.101562 13.335938 4.101562 C 13.335938 4.101562 14.003906 5.011719 14.304688 5.011719 C 14.667969 5.011719 15.089844 3.984375 15.273438 3.863281 C 15.332031 3.800781 15.394531 3.800781 15.453125 3.742188 C 15.515625 3.742188 15.515625 3.679688 15.515625 3.621094 C 15.574219 3.621094 15.636719 3.621094 15.695312 3.621094 C 15.9375 3.5 16.542969 3.257812 16.84375 2.894531 C 17.269531 2.46875 17.207031 1.320312 17.753906 0.957031 C 18.359375 0.535156 19.566406 0.59375 20.355469 0.777344 C 21.078125 0.898438 21.5625 1.441406 22.289062 1.683594 C 23.015625 1.984375 24.042969 2.046875 24.710938 2.46875 C 25.4375 2.894531 26.160156 3.558594 26.402344 4.34375 C 26.707031 5.132812 26.644531 6.523438 26.28125 7.25 C 25.917969 7.855469 25.195312 8.339844 24.527344 8.519531 C 23.863281 8.699219 22.957031 8.277344 22.230469 8.21875 C 21.503906 8.21875 20.355469 7.914062 20.050781 8.277344 C 19.808594 8.640625 20.476562 10.214844 20.535156 10.335938 C 20.535156 10.335938 20.535156 10.335938 20.535156 10.394531 C 20.597656 10.394531 20.65625 10.578125 20.65625 10.578125 C 20.65625 10.578125 20.71875 10.757812 20.777344 10.816406 C 20.777344 10.878906 20.839844 11.058594 20.839844 11.058594 C 20.839844 11.058594 20.839844 12.148438 20.898438 12.753906 C 20.960938 13.480469 21.199219 14.328125 21.320312 15.113281 C 21.441406 16.019531 21.503906 16.988281 21.503906 17.894531 C 21.5625 18.683594 21.925781 19.53125 21.5625 20.195312 C 21.199219 20.859375 20.113281 21.464844 19.203125 21.769531 C 18.359375 22.070312 17.207031 21.949219 16.300781 21.890625 C 15.574219 21.890625 14.183594 21.527344 14.183594 21.585938 C 14.183594 21.585938 14.003906 21.585938 13.941406 21.648438 C 13.820312 21.648438 13.699219 21.707031 13.699219 21.707031 C 13.699219 21.707031 13.519531 21.707031 13.398438 21.707031 C 13.335938 21.707031 13.15625 21.707031 13.15625 21.707031 C 13.15625 21.707031 12.972656 21.648438 12.914062 21.648438 C 12.851562 21.648438 12.671875 21.585938 12.671875 21.585938 C 12.671875 21.585938 12.488281 21.527344 12.429688 21.464844 C 12.367188 21.464844 12.367188 21.40625 12.308594 21.40625 C 12.1875 21.40625 12.066406 21.648438 11.886719 21.707031 C 11.402344 21.828125 10.371094 21.648438 9.648438 21.648438 C 8.921875 21.585938 8.132812 21.828125 7.46875 21.648438 C 6.804688 21.40625 5.894531 21.101562 5.53125 20.4375 C 5.109375 19.652344 5.714844 17.957031 5.773438 16.929688 C 5.773438 16.140625 5.773438 15.535156 5.773438 14.8125 C 5.773438 14.085938 5.894531 13.296875 5.894531 12.574219 C 5.894531 11.785156 5.773438 10.335938 5.773438 10.335938 C 5.773438 10.335938 5.773438 10.152344 5.773438 10.09375 C 5.773438 10.03125 5.835938 9.851562 5.835938 9.851562 C 5.835938 9.851562 5.835938 9.667969 5.894531 9.609375 C 5.894531 9.488281 5.957031 9.367188 5.957031 9.367188 C 5.957031 9.367188 6.078125 9.246094 6.078125 9.183594 C 6.078125 9.125 6.078125 9.003906 6.078125 9.003906 C 6.078125 9.003906 6.078125 8.820312 6.078125 8.761719 C 6.015625 8.640625 6.015625 8.519531 6.015625 8.519531 C 6.015625 8.519531 6.078125 8.339844 6.078125 8.277344 C 5.894531 8.097656 4.625 8.21875 4.382812 8.277344 C 4.261719 8.277344 4.261719 8.277344 4.203125 8.277344 C 4.140625 8.339844 3.960938 8.339844 3.960938 8.339844 C 3.960938 8.339844 3.777344 8.339844 3.71875 8.339844 C 3.597656 8.339844 3.414062 8.339844 3.414062 8.339844 C 3.414062 8.339844 3.292969 8.277344 3.171875 8.277344 C 3.113281 8.21875 2.933594 8.15625 2.933594 8.15625 C 2.933594 8.15625 2.8125 8.097656 2.75 8.035156 C 2.628906 7.976562 2.507812 7.914062 2.507812 7.914062 C 2.507812 7.914062 2.386719 7.792969 2.328125 7.734375 C 2.265625 7.671875 2.144531 7.550781 2.144531 7.550781 C 2.144531 7.550781 2.023438 7.429688 2.023438 7.371094 C 1.964844 7.25 1.902344 7.128906 1.84375 7.128906 C 1.84375 7.128906 1.84375 6.945312 1.78125 6.886719 C 1.78125 6.824219 1.722656 6.644531 1.722656 6.644531 C 1.722656 6.644531 1.722656 6.460938 1.722656 6.402344 C 1.722656 6.339844 1.722656 6.28125 1.660156 6.28125 C 1.660156 6.160156 1.480469 6.101562 1.417969 6.039062 C 1.296875 5.917969 1.175781 5.796875 1.054688 5.617188 C 0.996094 5.496094 0.875 5.3125 0.875 5.191406 C 0.816406 5.011719 0.753906 4.648438 0.753906 4.648438 " clip-rule="nonzero"/></clipPath><clipPath id="27b38e486c"><rect x="0" width="27" y="0" height="22"/></clipPath><clipPath id="f3430403b3"><path d="M 153.585938 117 L 158.636719 117 L 158.636719 128.785156 L 153.585938 128.785156 Z M 153.585938 117 " clip-rule="nonzero"/></clipPath><clipPath id="36702accc7"><path d="M 158.140625 118.945312 C 158.019531 128.324219 156.871094 128.867188 156.203125 128.746094 C 155.539062 128.6875 154.570312 127.535156 154.390625 126.933594 C 154.269531 126.507812 154.390625 126.023438 154.691406 125.601562 C 154.996094 125.175781 155.78125 124.632812 156.324219 124.574219 C 156.808594 124.511719 157.292969 124.632812 157.65625 124.875 C 158.078125 125.238281 158.683594 126.023438 158.625 126.628906 C 158.5625 127.292969 157.777344 128.503906 157.113281 128.6875 C 156.445312 128.867188 155.296875 128.566406 154.691406 127.777344 C 153.601562 126.328125 153.242188 119.914062 154.085938 118.28125 C 154.511719 117.433594 155.480469 117.070312 156.144531 117.011719 C 156.628906 116.949219 157.171875 117.253906 157.476562 117.617188 C 157.839844 117.917969 158.140625 118.945312 158.140625 118.945312 " clip-rule="nonzero"/></clipPath><clipPath id="2ee77991c1"><path d="M 0.585938 0 L 5.636719 0 L 5.636719 11.785156 L 0.585938 11.785156 Z M 0.585938 0 " clip-rule="nonzero"/></clipPath><clipPath id="8b8885ae3a"><path d="M 5.140625 1.945312 C 5.019531 11.324219 3.871094 11.867188 3.203125 11.746094 C 2.539062 11.6875 1.570312 10.535156 1.390625 9.933594 C 1.269531 9.507812 1.390625 9.023438 1.691406 8.601562 C 1.996094 8.175781 2.78125 7.632812 3.324219 7.574219 C 3.808594 7.511719 4.292969 7.632812 4.65625 7.875 C 5.078125 8.238281 5.683594 9.023438 5.625 9.628906 C 5.5625 10.292969 4.777344 11.503906 4.113281 11.6875 C 3.445312 11.867188 2.296875 11.566406 1.691406 10.777344 C 0.601562 9.328125 0.242188 2.914062 1.085938 1.28125 C 1.511719 0.433594 2.480469 0.0703125 3.144531 0.0117188 C 3.628906 -0.0507812 4.171875 0.253906 4.476562 0.617188 C 4.839844 0.917969 5.140625 1.945312 5.140625 1.945312 " clip-rule="nonzero"/></clipPath><clipPath id="9129e5c8ef"><rect x="0" width="6" y="0" height="12"/></clipPath><clipPath id="35e3ae9a86"><rect x="0" width="302" y="0" height="137"/></clipPath></defs><g transform="matrix(1, 0, 0, 1, 25, 33)"><g clip-path="url(#35e3ae9a86)"><g clip-path="url(#ca46863d80)"><g transform="matrix(1, 0, 0, 1, 0, 13)"><g clip-path="url(#b1671b246a)"><g fill="#007aff" fill-opacity="1"><g transform="translate(1.038905, 83.041268)"><g><path d="M 19.890625 -58.671875 L 19.890625 -47.09375 L 27.9375 -47.09375 L 27.9375 -37.875 L 19.890625 -37.875 L 19.890625 -14.359375 C 19.890625 -12.617188 20.222656 -11.367188 20.890625 -10.609375 C 21.554688 -9.859375 22.832031 -9.484375 24.71875 -9.484375 C 26.113281 -9.484375 27.347656 -9.585938 28.421875 -9.796875 L 28.421875 -0.265625 C 25.953125 0.492188 23.414062 0.875 20.8125 0.875 C 11.988281 0.875 7.488281 -3.578125 7.3125 -12.484375 L 7.3125 -37.875 L 0.4375 -37.875 L 0.4375 -47.09375 L 7.3125 -47.09375 L 7.3125 -58.671875 Z M 19.890625 -58.671875 "/></g></g><g transform="translate(31.159372, 83.041268)"><g><path d="M 26.5 0.875 C 19.59375 0.875 13.972656 -1.242188 9.640625 -5.484375 C 5.304688 -9.722656 3.140625 -15.367188 3.140625 -22.421875 L 3.140625 -23.640625 C 3.140625 -28.367188 4.050781 -32.597656 5.875 -36.328125 C 7.707031 -40.054688 10.296875 -42.925781 13.640625 -44.9375 C 16.992188 -46.957031 20.816406 -47.96875 25.109375 -47.96875 C 31.554688 -47.96875 36.628906 -45.9375 40.328125 -41.875 C 44.023438 -37.8125 45.875 -32.050781 45.875 -24.59375 L 45.875 -19.453125 L 15.890625 -19.453125 C 16.296875 -16.378906 17.519531 -13.910156 19.5625 -12.046875 C 21.613281 -10.191406 24.203125 -9.265625 27.328125 -9.265625 C 32.179688 -9.265625 35.96875 -11.019531 38.6875 -14.53125 L 44.875 -7.609375 C 42.988281 -4.941406 40.4375 -2.859375 37.21875 -1.359375 C 34 0.128906 30.425781 0.875 26.5 0.875 Z M 25.078125 -37.78125 C 22.578125 -37.78125 20.550781 -36.9375 19 -35.25 C 17.445312 -33.570312 16.453125 -31.164062 16.015625 -28.03125 L 33.515625 -28.03125 L 33.515625 -29.03125 C 33.453125 -31.8125 32.695312 -33.960938 31.25 -35.484375 C 29.800781 -37.015625 27.742188 -37.78125 25.078125 -37.78125 Z M 25.078125 -37.78125 "/></g></g><g transform="translate(79.343412, 83.041268)"><g><path d="M 26.5 0.875 C 19.59375 0.875 13.972656 -1.242188 9.640625 -5.484375 C 5.304688 -9.722656 3.140625 -15.367188 3.140625 -22.421875 L 3.140625 -23.640625 C 3.140625 -28.367188 4.050781 -32.597656 5.875 -36.328125 C 7.707031 -40.054688 10.296875 -42.925781 13.640625 -44.9375 C 16.992188 -46.957031 20.816406 -47.96875 25.109375 -47.96875 C 31.554688 -47.96875 36.628906 -45.9375 40.328125 -41.875 C 44.023438 -37.8125 45.875 -32.050781 45.875 -24.59375 L 45.875 -19.453125 L 15.890625 -19.453125 C 16.296875 -16.378906 17.519531 -13.910156 19.5625 -12.046875 C 21.613281 -10.191406 24.203125 -9.265625 27.328125 -9.265625 C 32.179688 -9.265625 35.96875 -11.019531 38.6875 -14.53125 L 44.875 -7.609375 C 42.988281 -4.941406 40.4375 -2.859375 37.21875 -1.359375 C 34 0.128906 30.425781 0.875 26.5 0.875 Z M 25.078125 -37.78125 C 22.578125 -37.78125 20.550781 -36.9375 19 -35.25 C 17.445312 -33.570312 16.453125 -31.164062 16.015625 -28.03125 L 33.515625 -28.03125 L 33.515625 -29.03125 C 33.453125 -31.8125 32.695312 -33.960938 31.25 -35.484375 C 29.800781 -37.015625 27.742188 -37.78125 25.078125 -37.78125 Z M 25.078125 -37.78125 "/></g></g></g><g fill="#007aff" fill-opacity="1"><g transform="translate(127.539888, 83.041268)"><g/></g><g transform="translate(149.738497, 83.041268)"><g/></g></g><g fill="#007aff" fill-opacity="1"><g transform="translate(171.937106, 83.041268)"><g><path d="M 26.5 0.875 C 19.59375 0.875 13.972656 -1.242188 9.640625 -5.484375 C 5.304688 -9.722656 3.140625 -15.367188 3.140625 -22.421875 L 3.140625 -23.640625 C 3.140625 -28.367188 4.050781 -32.597656 5.875 -36.328125 C 7.707031 -40.054688 10.296875 -42.925781 13.640625 -44.9375 C 16.992188 -46.957031 20.816406 -47.96875 25.109375 -47.96875 C 31.554688 -47.96875 36.628906 -45.9375 40.328125 -41.875 C 44.023438 -37.8125 45.875 -32.050781 45.875 -24.59375 L 45.875 -19.453125 L 15.890625 -19.453125 C 16.296875 -16.378906 17.519531 -13.910156 19.5625 -12.046875 C 21.613281 -10.191406 24.203125 -9.265625 27.328125 -9.265625 C 32.179688 -9.265625 35.96875 -11.019531 38.6875 -14.53125 L 44.875 -7.609375 C 42.988281 -4.941406 40.4375 -2.859375 37.21875 -1.359375 C 34 0.128906 30.425781 0.875 26.5 0.875 Z M 25.078125 -37.78125 C 22.578125 -37.78125 20.550781 -36.9375 19 -35.25 C 17.445312 -33.570312 16.453125 -31.164062 16.015625 -28.03125 L 33.515625 -28.03125 L 33.515625 -29.03125 C 33.453125 -31.8125 32.695312 -33.960938 31.25 -35.484375 C 29.800781 -37.015625 27.742188 -37.78125 25.078125 -37.78125 Z M 25.078125 -37.78125 "/></g></g><g transform="translate(220.121146, 83.041268)"><g><path d="M 16.40625 -47.09375 L 16.796875 -41.65625 C 20.160156 -45.863281 24.675781 -47.96875 30.34375 -47.96875 C 35.332031 -47.96875 39.046875 -46.5 41.484375 -43.5625 C 43.921875 -40.632812 45.164062 -36.253906 45.21875 -30.421875 L 45.21875 0 L 32.640625 0 L 32.640625 -30.125 C 32.640625 -32.789062 32.054688 -34.722656 30.890625 -35.921875 C 29.734375 -37.128906 27.804688 -37.734375 25.109375 -37.734375 C 21.566406 -37.734375 18.914062 -36.222656 17.15625 -33.203125 L 17.15625 0 L 4.5625 0 L 4.5625 -47.09375 Z M 16.40625 -47.09375 "/></g></g><g transform="translate(270.046253, 83.041268)"><g><path d="M 19.890625 -58.671875 L 19.890625 -47.09375 L 27.9375 -47.09375 L 27.9375 -37.875 L 19.890625 -37.875 L 19.890625 -14.359375 C 19.890625 -12.617188 20.222656 -11.367188 20.890625 -10.609375 C 21.554688 -9.859375 22.832031 -9.484375 24.71875 -9.484375 C 26.113281 -9.484375 27.347656 -9.585938 28.421875 -9.796875 L 28.421875 -0.265625 C 25.953125 0.492188 23.414062 0.875 20.8125 0.875 C 11.988281 0.875 7.488281 -3.578125 7.3125 -12.484375 L 7.3125 -37.875 L 0.4375 -37.875 L 0.4375 -47.09375 L 7.3125 -47.09375 L 7.3125 -58.671875 Z M 19.890625 -58.671875 "/></g></g></g></g></g></g><g clip-path="url(#6f941c576c)"><g transform="matrix(1, 0, 0, 1, 121, 0.000000000000042633)"><g clip-path="url(#e22faea23b)"><g fill="#f4b400" fill-opacity="1"><g transform="translate(1.774112, 105.702236)"><g><path d="M 27.875 -14.078125 L 42.90625 -60.6875 L 53.5 -60.6875 L 31.75 0 L 23.828125 0 L 1.84375 -60.6875 L 12.453125 -60.6875 Z M 27.875 -14.078125 "/></g></g></g></g></g></g><g clip-path="url(#ac5ffdac42)"><path fill="#f4b400" d="M 159.960938 134.429688 L 141.257812 134.429688 L 142.09375 121.328125 L 138.414062 121.964844 L 136.152344 115.179688 L 145.886719 111.285156 L 150.609375 115.066406 L 155.328125 111.285156 L 165.066406 115.179688 L 162.804688 121.964844 L 159.121094 121.328125 Z M 143.601562 132.230469 L 157.617188 132.230469 L 156.75 118.683594 L 161.316406 119.476562 L 162.324219 116.449219 L 155.703125 113.800781 L 150.609375 117.882812 L 145.515625 113.800781 L 138.890625 116.449219 L 139.902344 119.476562 L 144.46875 118.683594 Z M 143.601562 132.230469 " fill-opacity="1" fill-rule="nonzero"/></g><g clip-path="url(#1c2dfd2126)"><g clip-path="url(#4f2cdd91df)"><g transform="matrix(1, 0, 0, 1, 137, 112)"><g clip-path="url(#27b38e486c)"><g clip-path="url(#e16fff5613)"><g clip-path="url(#2fea63ceca)"><rect x="-290.037" width="607.824" fill="#f4b400" y="-219.255998" height="352.511992" fill-opacity="1"/></g></g></g></g></g></g><g clip-path="url(#f3430403b3)"><g clip-path="url(#36702accc7)"><g transform="matrix(1, 0, 0, 1, 153, 117)"><g clip-path="url(#9129e5c8ef)"><g clip-path="url(#2ee77991c1)"><g clip-path="url(#8b8885ae3a)"><rect x="-306.037" width="607.824" fill="#f4b400" y="-224.255998" height="352.511992" fill-opacity="1"/></g></g></g></g></g></g></g></g></svg>